<?xml version="1.0" encoding="utf-8"?>
<!-- Generator: Fusion 360, Shaper Origin Export Add-In, Version 1.7.0  -->
<svg xmlns="http://www.w3.org/2000/svg" xmlns:xlink="http://www.w3.org/1999/xlink" xmlns:shaper="http://www.shapertools.com/namespaces/shaper" shaper:fusionaddin="version:1.7.0" width="32.665087cm" height="54.5592575cm" version="1.1" x="0cm" y="0cm" viewBox="0 0 32.665087 54.5592575" enable-background="new 0 0 32.665087 54.5592575" xml:space="preserve"><path d="M15.6762655,-17.4640874 L15.6762655,-17.4640874 15.6765206,-17.5315572 15.6772857,-17.5985041 15.678561,-17.6649281 15.6803464,-17.730829 15.682642,-17.7962067 15.6854476,-17.8610611 15.6887634,-17.9253922 15.6925893,-17.9891998 15.6969253,-18.0524838 15.7017715,-18.1152442 15.7071277,-18.1774808 15.7129941,-18.2391935 15.7193706,-18.3003823 15.7262572,-18.361047 15.733654,-18.4211875 15.7415608,-18.4808037 15.7499778,-18.5398956 15.7589049,-18.598463 15.7683421,-18.6565059 15.7782895,-18.7140241 15.7887469,-18.7710175 15.7997145,-18.827486 15.8111922,-18.8834296 15.82318,-18.9388481 15.835678,-18.9937415 15.848686,-19.0481096 15.8622042,-19.1019523 15.8762325,-19.1552696 15.8907709,-19.2080613 15.9058195,-19.2603273 15.9213781,-19.3120676 15.9374469,-19.363282 15.9540258,-19.4139705 15.9711148,-19.4641329 15.988714,-19.5137691 16.0068232,-19.5628791 16.0254426,-19.6114627 16.0445721,-19.6595198 16.0642117,-19.7070504 16.0843614,-19.7540544 16.1050213,-19.8005315 16.1261913,-19.8464819 16.1478714,-19.8919052 16.1700616,-19.9368015 16.1927619,-19.9811707 16.2159724,-20.0250126 16.239693,-20.0683271 16.2639237,-20.1111142 16.2886645,-20.1533737 16.3139154,-20.1951055 16.3396765,-20.2363096 16.3659477,-20.2769859 16.3927289,-20.3171342 16.4200204,-20.3567544 16.4478219,-20.3958465 16.4761336,-20.4344104 16.5049553,-20.4724459 16.5342872,-20.5099529 16.5641292,-20.5469314 16.5944814,-20.5833812 16.6253436,-20.6193023 16.656716,-20.6546945 16.6885985,-20.6895578 16.7209911,-20.723892 16.7538939,-20.7576971 16.7873067,-20.7909729 16.8212297,-20.8237194 16.8556628,-20.8559364 16.890606,-20.8876239 16.9260593,-20.9187817 16.9620228,-20.9494098 16.9984964,-20.979508 17.0354801,-21.0090763 17.0729739,-21.0381146 17.1109778,-21.0666226 17.1494919,-21.0946005 17.1885161,-21.122048 17.2280504,-21.1489651 17.2680948,-21.1753516 17.3086493,-21.2012074 17.349714,-21.2265326 17.3912887,-21.2513268 17.4333736,-21.2755902 17.4759686,-21.2993225 17.5190738,-21.3225236 17.562689,-21.3451935 17.6068144,-21.3673321 17.6514499,-21.3889392 17.6965955,-21.4100148 17.7422513,-21.4305587 17.7884171,-21.4505709 17.8350931,-21.4700513 17.8822792,-21.4889997 17.9299754,-21.5074161 17.9781817,-21.5253003 18.0268982,-21.5426523 18.0761248,-21.559472 18.1258614,-21.5757592 18.1761083,-21.5915139 18.2268652,-21.6067359 18.2781322,-21.6214253 18.3299094,-21.6355817 18.3821967,-21.6492053 18.4349941,-21.6622958 18.4883017,-21.6748531 18.5421193,-21.6868773 18.5964471,-21.6983681 18.651285,-21.7093254 18.706633,-21.7197493 18.7624911,-21.7296395 18.8188594,-21.7389959 18.8757378,-21.7478185 18.9331263,-21.7561072 18.9910249,-21.7638619 19.0494336,-21.7710824 19.1083525,-21.7777687 19.1677814,-21.7839207 19.2277205,-21.7895382 19.2881697,-21.7946212 19.3491291,-21.7991696 19.4105985,-21.8031833 19.4725781,-21.8066621 19.5350678,-21.809606 19.5980676,-21.8120148 19.6615775,-21.8138886 19.7255976,-21.8152271 19.7901278,-21.8160302 19.855168,-21.816298 19.855168,-21.816298 19.9533919,-21.8159156 20.0521784,-21.814769 20.1515293,-21.8128589 20.251446,-21.8101861 20.3519303,-21.8067515 20.4529837,-21.8025559 20.5546079,-21.7976 20.6568042,-21.7918846 20.7595745,-21.7854106 20.8629203,-21.7781787 20.9668431,-21.7701897 21.0713446,-21.7614445 21.1764264,-21.7519437 21.2820901,-21.7416883 21.3883371,-21.7306791 21.4951693,-21.7189167 21.602588,-21.706402 21.710595,-21.6931359 21.8191919,-21.679119 21.9283801,-21.6643523 22.0381614,-21.6488365 22.1485373,-21.6325723 22.2595093,-21.6155607 22.3710792,-21.5978024 22.4832485,-21.5792981 22.5960187,-21.5600487 22.7093915,-21.540055 22.8233685,-21.5193178 22.9379513,-21.4978379 23.0531414,-21.4756161 23.1689405,-21.4526531 23.2853502,-21.4289498 23.4023719,-21.4045069 23.5200074,-21.3793254 23.6382583,-21.3534059 23.757126,-21.3267492 23.8766123,-21.2993562 23.9967187,-21.2712277 24.1174468,-21.2423644 24.2387982,-21.2127671 24.3607745,-21.1824367 24.4833773,-21.151374 24.6066082,-21.1195797 24.7304687,-21.0870546 24.8549605,-21.0537996 24.9800852,-21.0198154 25.1058443,-20.9851028 25.2322395,-20.9496626 25.3592723,-20.9134957 25.4869444,-20.8766028 25.6152573,-20.8389847 25.7442126,-20.8006422 25.8738119,-20.7615762 26.0040569,-20.7217873 26.1349491,-20.6812764 26.2664901,-20.6400444 26.3986814,-20.598092 26.5315248,-20.5554199 26.6650217,-20.5120291 26.7991739,-20.4679202 26.9339828,-20.4230941 27.06945,-20.3775517 27.2055772,-20.3312936 27.342366,-20.2843206 27.342366,-31.5304227 27.342366,-31.5304227 27.1467861,-31.6144757 26.9518184,-31.696903 26.7574628,-31.777711 26.5637193,-31.8569061 26.370588,-31.9344946 26.1780687,-32.0104828 25.9861617,-32.0848773 25.7948668,-32.1576843 25.604184,-32.2289103 25.4141133,-32.2985615 25.2246548,-32.3666445 25.0358085,-32.4331655 24.8475742,-32.4981309 24.6599521,-32.5615471 24.4729422,-32.6234205 24.2865444,-32.6837574 24.1007587,-32.7425643 23.9155852,-32.7998475 23.7310239,-32.8556133 23.5470746,-32.9098682 23.3637375,-32.9626186 23.1810126,-33.0138707 22.9988998,-33.063631 22.8173992,-33.1119058 22.6365107,-33.1587016 22.4562343,-33.2040247 22.2765701,-33.2478814 22.097518,-33.2902782 21.9190781,-33.3312214 21.7412503,-33.3707174 21.5640347,-33.4087726 21.3874312,-33.4453933 21.3874312,-33.4453933 21.2102146,-33.480688 21.0311551,-33.514765 20.8502464,-33.5476307 20.6674821,-33.5792914 20.482856,-33.6097537 20.2963615,-33.6390237 20.1079923,-33.667108 19.917742,-33.6940128 19.7256043,-33.7197446 19.5315728,-33.7443097 19.3356411,-33.7677146 19.1378028,-33.7899655 18.9380515,-33.8110688 18.7363809,-33.831031 18.5327847,-33.8498584 18.3272563,-33.8675573 18.1197895,-33.8841342 17.9103778,-33.8995955 17.6990149,-33.9139474 17.4856945,-33.9271964 17.2704101,-33.9393488 17.0531553,-33.9504111 16.8339238,-33.9603895 16.6127092,-33.9692906 16.3895052,-33.9771206 16.1643053,-33.9838859 15.9371032,-33.9895929 15.7078925,-33.9942479 15.4766668,-33.9978574 15.2434197,-34.0004278 15.0081449,-34.0019653 14.7708361,-34.0024764 14.7708361,-34.0024764 14.6494849,-34.0022468 14.5286568,-34.0015581 14.408352,-34.0004099 14.2885707,-33.9988021 14.169313,-33.9967345 14.0505792,-33.9942068 13.9323695,-33.991219 13.814684,-33.9877707 13.697523,-33.9838618 13.5808867,-33.9794921 13.4647752,-33.9746614 13.3491889,-33.9693695 13.2341277,-33.9636161 13.1195921,-33.9574012 13.0055821,-33.9507244 12.8920979,-33.9435857 12.7791399,-33.9359847 12.666708,-33.9279213 12.5548027,-33.9193953 12.443424,-33.9104065 12.3325722,-33.9009547 12.2222474,-33.8910397 12.1124499,-33.8806613 12.0031798,-33.8698193 11.8944374,-33.8585134 11.7862228,-33.8467436 11.6785363,-33.8345096 11.5713781,-33.8218111 11.4647483,-33.8086481 11.3586472,-33.7950203 11.2530749,-33.7809275 11.1480316,-33.7663694 11.0435177,-33.751346 10.9395331,-33.735857 10.8360782,-33.7199022 10.7331532,-33.7034814 10.6307582,-33.6865944 10.5288934,-33.669241 10.4275591,-33.651421 10.3267555,-33.6331342 10.2264827,-33.6143805 10.1267409,-33.5951595 10.0275304,-33.5754712 9.9288513,-33.5553152 9.8307038,-33.5346915 9.7330882,-33.5135998 9.6360047,-33.4920399 9.5394534,-33.4700116 9.4434345,-33.4475148 9.3479482,-33.4245491 9.2529948,-33.4011145 9.1585744,-33.3772107 9.0646873,-33.3528375 8.9713336,-33.3279947 8.8785135,-33.3026821 8.7862272,-33.2768996 8.694475,-33.2506469 8.6032571,-33.2239238 8.5125735,-33.1967301 8.4224246,-33.1690657 8.3328105,-33.1409302 8.2437314,-33.1123236 8.1551876,-33.0832457 8.0671792,-33.0536961 7.9797064,-33.0236748 7.8927695,-32.9931815 7.8063685,-32.9622161 7.7205038,-32.9307782 7.6351755,-32.8988678 7.5503839,-32.8664846 7.466129,-32.8336285 7.3824112,-32.8002992 7.2992306,-32.7664965 7.2165875,-32.7322203 7.1344819,-32.6974703 7.0529142,-32.6622463 6.9718844,-32.6265482 6.8913929,-32.5903757 6.8114398,-32.5537286 6.7320253,-32.5166068 6.6531497,-32.47901 6.574813,-32.4409381 6.4970156,-32.4023908 6.4197576,-32.363368 6.3430392,-32.3238693 6.2668606,-32.2838948 6.191222,-32.2434441 6.1161236,-32.202517 6.0415656,-32.1611133 5.9675482,-32.119233 5.8940717,-32.0768756 5.8211361,-32.0340411 5.7487418,-31.9907293 5.6768888,-31.9469399 5.6055775,-31.9026727 5.5348079,-31.8579276 5.4645804,-31.8127044 5.3948951,-31.7670028 5.3257521,-31.7208227 5.2571518,-31.6741638 5.1890942,-31.627026 5.1215797,-31.579409 5.0546084,-31.5313127 4.9881804,-31.4827368 4.9222961,-31.4336812 4.8569555,-31.3841457 4.792159,-31.33413 4.7279066,-31.283634 4.6641986,-31.2326574 4.6010353,-31.1812001 4.5384167,-31.1292618 4.4763431,-31.0768425 4.4148147,-31.0239418 4.3538317,-30.9705595 4.2933943,-30.9166955 4.2335026,-30.8623496 4.174157,-30.8075216 4.1153575,-30.7522112 4.0571044,-30.6964183 3.9993979,-30.6401426 3.9422382,-30.583384 3.8856255,-30.5261423 3.82956,-30.4684173 3.7740418,-30.4102087 3.7190712,-30.3515164 3.6646484,-30.2923402 3.6107736,-30.2326799 3.557447,-30.1725352 3.557447,-30.1725352 3.5037888,-30.1127158 3.4505514,-30.052399 3.3977349,-29.9915848 3.3453392,-29.930273 3.2933643,-29.8684635 3.2418104,-29.8061562 3.1906772,-29.7433511 3.1399649,-29.6800479 3.0896735,-29.6162468 3.0398029,-29.5519474 2.9903532,-29.4871498 2.9413243,-29.4218538 2.8927162,-29.3560593 2.844529,-29.2897663 2.7967627,-29.2229746 2.7494172,-29.1556841 2.7024925,-29.0878947 2.6559887,-29.0196064 2.6099058,-28.950819 2.5642437,-28.8815325 2.5190024,-28.8117467 2.474182,-28.7414615 2.4297825,-28.6706768 2.3858037,-28.5993926 2.3422459,-28.5276088 2.2991089,-28.4553251 2.2563927,-28.3825416 2.2140974,-28.3092581 2.1722229,-28.2354746 2.1307693,-28.1611909 2.0897365,-28.0864069 2.0491246,-28.0111226 2.0089336,-27.9353378 1.9691633,-27.8590525 1.929814,-27.7822665 1.8908854,-27.7049797 1.8523778,-27.6271921 1.8142909,-27.5489035 1.776625,-27.4701138 1.7393798,-27.390823 1.7025556,-27.3110309 1.6661521,-27.2307375 1.6301695,-27.1499426 1.5946078,-27.0686462 1.5594669,-26.9868481 1.5247469,-26.9045482 1.4904477,-26.8217465 1.4565694,-26.7384428 1.4231119,-26.6546371 1.3900752,-26.5703292 1.3574594,-26.4855191 1.3252645,-26.4002066 1.2934904,-26.3143916 1.2621372,-26.2280741 1.2312048,-26.141254 1.2006932,-26.0539311 1.1706025,-25.9661053 1.1409327,-25.8777766 1.1116837,-25.7889448 1.0828555,-25.6996099 1.0544482,-25.6097718 1.0264617,-25.5194303 0.9988961,-25.4285853 0.9717514,-25.3372368 0.9450275,-25.2453846 0.9187244,-25.1530287 0.8928422,-25.0601689 0.8673808,-24.9668052 0.8423403,-24.8729375 0.8177207,-24.7785655 0.7935218,-24.6836894 0.7697439,-24.5883089 0.7463868,-24.4924239 0.7234505,-24.3960345 0.7009351,-24.2991403 0.6788405,-24.2017414 0.6571668,-24.1038377 0.6359139,-24.005429 0.6150819,-23.9065153 0.5946707,-23.8070965 0.5746804,-23.7071724 0.5551109,-23.6067429 0.5359623,-23.505808 0.5172345,-23.4043676 0.4989276,-23.3024215 0.4810415,-23.1999697 0.4635763,-23.0970121 0.4465319,-22.9935485 0.4299083,-22.8895788 0.4137056,-22.7851031 0.3979238,-22.6801211 0.3825628,-22.5746327 0.3676227,-22.4686379 0.3531034,-22.3621366 0.3390049,-22.2551286 0.3253274,-22.1476139 0.3120706,-22.0395924 0.2992347,-21.9310639 0.2868197,-21.8220284 0.2748255,-21.7124858 0.2632521,-21.6024359 0.2520996,-21.4918787 0.241368,-21.380814 0.2310572,-21.2692418 0.2211672,-21.157162 0.2116981,-21.0445745 0.2026499,-20.9314791 0.1940225,-20.8178758 0.1858159,-20.7037644 0.1780302,-20.589145 0.1706653,-20.4740172 0.1637213,-20.3583812 0.1571982,-20.2422367 0.1510959,-20.1255837 0.1454144,-20.0084221 0.1401538,-19.8907517 0.135314,-19.7725726 0.1308951,-19.6538844 0.126897,-19.5346873 0.1233198,-19.414981 0.1201635,-19.2947655 0.1174279,-19.1740407 0.1151133,-19.0528065 0.1132195,-18.9310627 0.1117465,-18.8088093 0.1106944,-18.6860461 0.1100631,-18.5627732 0.1098527,-18.4389903 0.1098527,0.0143693 -5.3227209,0.0143693 -5.3227209,6.281545 1.5376436,11.1560164 5.5424249,20.5567811 15.6762655,20.5567811 15.6762655,11.5738276 26.68071,11.5738276 26.68071,-0.0204487 15.6762655,-0.0204487 15.6762655,-17.4640874z" transform="matrix(1,0,0,-1,5.3227209,20.5567811)" fill="rgb(0,0,0)" shaper:cutDepth="0.5cm" stroke-linecap="round" stroke-linejoin="round" /><path d="M5.3375331,1.3247303 L5.3375331,6.3247303 9.6676601,8.8247303 13.9977871,6.3247303 13.9977871,1.3247303 9.6676601,-1.1752697 5.3375331,1.3247303z" transform="matrix(1,0,0,-1,5.3227209,20.5567811)" fill="rgb(255,255,255)" stroke="rgb(0,0,0)" stroke-width="0.0010cm" stroke-linecap="round" stroke-linejoin="round" shaper:cutDepth="0.5cm" /><path d="M14.4977871,0.4587049 L14.6762655,0.3556604 14.6762655,-9.4382506 14.4977871,-9.5412951 10.1676601,-7.0412951 10.1676601,-2.0412951 14.4977871,0.4587049z" transform="matrix(1,0,0,-1,5.3227209,20.5567811)" fill="rgb(255,255,255)" stroke="rgb(0,0,0)" stroke-width="0.0010cm" stroke-linecap="round" stroke-linejoin="round" shaper:cutDepth="0.5cm" /><path d="M23.6580412,1.3247303 L23.0601736,0.9795513 15.5956547,0.9795513 14.9977871,1.3247303 14.9977871,6.3247303 19.3279142,8.8247303 23.6580412,6.3247303 23.6580412,1.3247303z" transform="matrix(1,0,0,-1,5.3227209,20.5567811)" fill="rgb(255,255,255)" stroke="rgb(0,0,0)" stroke-width="0.0010cm" stroke-linecap="round" stroke-linejoin="round" shaper:cutDepth="0.5cm" /><path d="M9.6676601,-7.9073205 L13.9977871,-10.4073205 13.9977871,-15.4073205 9.6676601,-17.9073205 5.3375331,-15.4073205 5.3375331,-10.4073205 9.6676601,-7.9073205z" transform="matrix(1,0,0,-1,5.3227209,20.5567811)" fill="rgb(255,255,255)" stroke="rgb(0,0,0)" stroke-width="0.0010cm" stroke-linecap="round" stroke-linejoin="round" shaper:cutDepth="0.5cm" /><path d="M19.8279142,9.6907557 L19.8279142,10.5738276 25.68071,10.5738276 25.68071,8.069869 24.1580412,7.1907557 19.8279142,9.6907557z" transform="matrix(1,0,0,-1,5.3227209,20.5567811)" fill="rgb(255,255,255)" stroke="rgb(0,0,0)" stroke-width="0.0010cm" stroke-linecap="round" stroke-linejoin="round" shaper:cutDepth="0.5cm" /><path d="M14.4977871,17.1907557 L14.6762655,17.0877112 14.6762655,10.5738276 18.8279142,10.5738276 18.8279142,9.6907557 14.4977871,7.1907557 10.1676601,9.6907557 10.1676601,14.6907557 14.4977871,17.1907557z" transform="matrix(1,0,0,-1,5.3227209,20.5567811)" fill="rgb(255,255,255)" stroke="rgb(0,0,0)" stroke-width="0.0010cm" stroke-linecap="round" stroke-linejoin="round" shaper:cutDepth="0.5cm" /><path d="M9.6676601,15.5567811 L5.5195915,17.9516696 6.2033785,19.5567811 13.9977871,19.5567811 13.9977871,18.0567811 9.6676601,15.5567811z" transform="matrix(1,0,0,-1,5.3227209,20.5567811)" fill="rgb(255,255,255)" stroke="rgb(0,0,0)" stroke-width="0.0010cm" stroke-linecap="round" stroke-linejoin="round" shaper:cutDepth="0.5cm" /><path d="M13.9977871,-32.1393713 L12.6409642,-32.9227334 12.6409642,-32.9227334 12.4919956,-32.9105965 12.3441282,-32.8976076 12.1973626,-32.883768 12.0516996,-32.8690792 11.9071401,-32.8535424 11.7636846,-32.8371592 11.621334,-32.8199309 11.4800891,-32.8018589 11.3399506,-32.7829447 11.2009192,-32.7631896 11.0629958,-32.742595 10.926181,-32.7211624 10.7904757,-32.6988931 10.6558805,-32.6757885 10.5223962,-32.6518501 10.3900237,-32.6270793 10.2587636,-32.6014774 10.1286167,-32.5750458 9.9995837,-32.547786 9.8716655,-32.5196993 9.7448627,-32.4907872 9.6191762,-32.461051 9.4946066,-32.4304922 9.3711548,-32.3991122 9.2488215,-32.3669123 9.1276074,-32.333894 9.0075133,-32.3000587 8.88854,-32.2654077 8.7706881,-32.2299425 8.6539586,-32.1936644 8.5383521,-32.156575 8.4238693,-32.1186755 8.3105117,-32.0799718 8.1982796,-32.040478 8.0871697,-32.0001955 7.9771785,-31.9591248 7.8683026,-31.9172661 7.7605385,-31.8746201 7.6538828,-31.8311871 7.5483319,-31.7869675 7.4438823,-31.7419618 7.3405307,-31.6961704 7.2382735,-31.6495937 7.1371073,-31.6022322 7.0370285,-31.5540863 6.9380338,-31.5051564 6.8401196,-31.4554431 6.7432824,-31.4049466 6.6475188,-31.3536674 6.5528254,-31.301606 6.4591986,-31.2487628 6.3666349,-31.1951382 6.275131,-31.1407327 6.1846833,-31.0855466 6.0952883,-31.0295805 6.0069425,-30.9728348 5.9196426,-30.9153098 5.833385,-30.857006 5.7481663,-30.7979239 5.6639829,-30.7380639 5.5808314,-30.6774264 5.4987084,-30.6160118 5.4176103,-30.5538207 5.3375337,-30.4908533 5.3375331,-27.1393713 9.6676601,-24.6393713 13.9977871,-27.1393713 13.9977871,-32.1393713z" transform="matrix(1,0,0,-1,5.3227209,20.5567811)" fill="rgb(255,255,255)" stroke="rgb(0,0,0)" stroke-width="0.0010cm" stroke-linecap="round" stroke-linejoin="round" shaper:cutDepth="0.5cm" /><path d="M24.6580412,6.3247303 L25.68071,6.9151684 25.68071,0.9795513 25.2559088,0.9795513 24.6580412,1.3247303 24.6580412,6.3247303z" transform="matrix(1,0,0,-1,5.3227209,20.5567811)" fill="rgb(255,255,255)" stroke="rgb(0,0,0)" stroke-width="0.0010cm" stroke-linecap="round" stroke-linejoin="round" shaper:cutDepth="0.5cm" /><path d="M4.3375331,-15.4073205 L1.1098527,-17.2708227 1.1098527,-8.5438183 4.3375331,-10.4073205 4.3375331,-15.4073205z" transform="matrix(1,0,0,-1,5.3227209,20.5567811)" fill="rgb(255,255,255)" stroke="rgb(0,0,0)" stroke-width="0.0010cm" stroke-linecap="round" stroke-linejoin="round" shaper:cutDepth="0.5cm" /><path d="M4.3375331,-27.1393713 L4.3375331,-29.5451569 4.3375331,-29.5451569 4.3209907,-29.5264774 4.312742,-29.517118 4.308613,-29.5124218 4.3039702,-29.5071372 4.3039702,-29.5071372 4.2983935,-29.5009701 4.2933008,-29.4953321 4.283127,-29.4840405 4.2628264,-29.4613948 4.2224129,-29.4158535 4.1423369,-29.3237681 4.0632634,-29.230341 3.9851934,-29.1355665 3.908128,-29.039439 3.8320682,-28.9419526 3.7570152,-28.8431017 3.6829701,-28.7428806 3.6099338,-28.6412835 3.5379076,-28.5383048 3.4668924,-28.4339387 3.3968894,-28.3281795 3.3278996,-28.2210214 3.2599242,-28.1124589 3.1929641,-28.0024861 3.1270206,-27.8910973 3.0620946,-27.7782869 2.9981873,-27.6640491 2.9352997,-27.5483782 2.8734329,-27.4312686 2.812588,-27.3127143 2.7527661,-27.1927099 2.6939683,-27.0712495 2.6361956,-26.9483274 2.5794491,-26.8239379 2.5237299,-26.6980754 2.4690392,-26.570734 2.4153778,-26.4419081 2.3627471,-26.311592 2.311148,-26.1797799 2.2605815,-26.0464662 2.2110489,-25.9116451 4.3375331,-27.1393713z" transform="matrix(1,0,0,-1,5.3227209,20.5567811)" fill="rgb(255,255,255)" stroke="rgb(0,0,0)" stroke-width="0.0010cm" stroke-linecap="round" stroke-linejoin="round" shaper:cutDepth="0.5cm" /><path d="M1.7810812,-24.5087026 L1.7810812,-24.5087026 1.7402809,-24.3462555 1.7007286,-24.1820542 1.6624274,-24.0160985 1.6253805,-23.848388 1.5895909,-23.6789226 1.5550617,-23.5077019 1.521796,-23.3347257 1.4897969,-23.1599938 1.4590675,-22.9835057 1.4296109,-22.8052613 1.4014302,-22.6252604 1.3745286,-22.4435026 1.348909,-22.2599876 1.3245746,-22.0747152 1.3015284,-21.8876852 1.2797737,-21.6988972 1.2593135,-21.508351 1.2401508,-21.3160464 1.2222888,-21.121983 1.2057305,-20.9261605 1.1904791,-20.7285788 1.1765377,-20.5292376 1.1639094,-20.3281365 1.1525972,-20.1252753 1.1426042,-19.9206537 1.1339336,-19.7142716 1.1265884,-19.5061285 1.1205718,-19.2962243 1.1158868,-19.0845586 1.1125366,-18.8711312 1.1105242,-18.6559419 1.1098527,-18.4389903 1.1098527,-18.4255232 4.8375331,-16.2733459 9.1676601,-18.7733459 9.1676601,-23.7733459 4.8375331,-26.2733459 1.7810812,-24.5087026z" transform="matrix(1,0,0,-1,5.3227209,20.5567811)" fill="rgb(255,255,255)" stroke="rgb(0,0,0)" stroke-width="0.0010cm" stroke-linecap="round" stroke-linejoin="round" shaper:cutDepth="0.5cm" /><path d="M19.8279142,-23.7733459 L19.8279142,-22.8162564 19.8279142,-22.8162564 19.855168,-22.816298 19.855168,-22.816298 19.94511,-22.8160042 20.0353832,-22.8151235 20.1259894,-22.8136571 20.2169299,-22.8116063 20.3082064,-22.8089722 20.3998202,-22.8057559 20.4917729,-22.8019588 20.5840661,-22.7975819 20.6767012,-22.7926265 20.7696798,-22.7870938 20.8630033,-22.7809849 20.9566732,-22.774301 21.0506911,-22.7670434 21.1450585,-22.7592132 21.2397769,-22.7508116 21.3348478,-22.7418397 21.4302727,-22.7322989 21.5260531,-22.7221902 21.6221906,-22.7115149 21.7186865,-22.7002741 21.8155425,-22.6884691 21.9127601,-22.676101 22.0103407,-22.663171 22.1082859,-22.6496803 22.2065972,-22.6356302 22.305276,-22.6210217 22.404324,-22.605856 22.5037425,-22.5901345 22.6035332,-22.5738582 22.7036975,-22.5570283 22.8042369,-22.5396461 22.905153,-22.5217127 23.0064472,-22.5032293 23.1081211,-22.4841971 23.2101762,-22.4646173 23.3126139,-22.444491 23.4154359,-22.4238196 23.5186435,-22.4026041 23.6222383,-22.3808457 23.7262219,-22.3585457 23.8305957,-22.3357052 23.9353612,-22.3123254 24.0405199,-22.2884075 24.1460734,-22.2639528 24.2520232,-22.2389623 24.3583708,-22.2134372 24.4651176,-22.1873789 24.5722652,-22.1607883 24.6798151,-22.1336669 24.7877688,-22.1060156 24.8961279,-22.0778358 25.0048937,-22.0491285 25.114068,-22.0198951 25.223652,-21.9901367 25.3336474,-21.9598544 25.4440557,-21.9290495 25.5548783,-21.8977232 25.6661168,-21.8658766 25.7777728,-21.8335109 25.8898476,-21.8006274 26.0023428,-21.7672271 26.1152599,-21.7333114 26.2286005,-21.6988814 26.342366,-21.6639382 26.342366,-25.0122254 24.1580412,-26.2733459 19.8279142,-23.7733459z" transform="matrix(1,0,0,-1,5.3227209,20.5567811)" fill="rgb(255,255,255)" stroke="rgb(0,0,0)" stroke-width="0.0010cm" stroke-linecap="round" stroke-linejoin="round" shaper:cutDepth="0.5cm" /><path d="M23.6580412,-27.1393713 L23.6580412,-31.8328707 23.6580412,-31.8328707 23.4997592,-31.8809826 23.3419972,-31.9279282 23.1847551,-31.9737123 23.0280327,-32.0183401 22.8718299,-32.0618166 22.7161467,-32.1041468 22.5609829,-32.1453357 22.4063383,-32.1853884 22.252213,-32.2243099 22.0986067,-32.2621052 21.9455193,-32.2987794 21.7929508,-32.3343375 21.6409011,-32.3687845 21.48937,-32.4021255 21.3383573,-32.4343654 21.1878631,-32.4655094 21.1878631,-32.4655094 21.0582977,-32.4914447 20.9275479,-32.516717 20.7956117,-32.5413277 20.6624872,-32.5652786 20.5281723,-32.5885712 20.392665,-32.6112072 20.2559632,-32.6331881 20.1180651,-32.6545156 19.9789687,-32.6751913 19.8386718,-32.6952169 19.6971725,-32.7145939 19.5544687,-32.733324 19.4105586,-32.7514088 19.2654401,-32.7688498 19.1191111,-32.7856488 18.9715697,-32.8018074 18.8228139,-32.8173271 18.6728417,-32.8322096 18.521651,-32.8464565 18.3692399,-32.8600694 18.2156063,-32.87305 18.0607483,-32.8853998 17.9046638,-32.8971205 17.7473509,-32.9082137 17.5888075,-32.918681 17.4290317,-32.9285241 17.2680214,-32.9377445 17.1057746,-32.9463439 16.9422893,-32.9543239 16.7775636,-32.9616861 16.6115954,-32.9684321 16.4443827,-32.9745636 14.9977871,-32.1393713 14.9977871,-27.1393713 19.3279142,-24.6393713 23.6580412,-27.1393713z" transform="matrix(1,0,0,-1,5.3227209,20.5567811)" fill="rgb(255,255,255)" stroke="rgb(0,0,0)" stroke-width="0.0010cm" stroke-linecap="round" stroke-linejoin="round" shaper:cutDepth="0.5cm" /><path d="M4.8375331,-9.5412951 L1.1098527,-7.3891178 1.1098527,-1.6934724 4.8375331,0.4587049 9.1676601,-2.0412951 9.1676601,-7.0412951 4.8375331,-9.5412951z" transform="matrix(1,0,0,-1,5.3227209,20.5567811)" fill="rgb(255,255,255)" stroke="rgb(0,0,0)" stroke-width="0.0010cm" stroke-linecap="round" stroke-linejoin="round" shaper:cutDepth="0.5cm" /><path d="M-4.3227209,5.7653491 L-0.0088373,8.8304782 4.3375331,6.3247303 4.3375331,1.3247303 1.1098527,-0.5387719 1.1098527,1.0143693 -4.3227209,1.0143693 -4.3227209,5.7653491z" transform="matrix(1,0,0,-1,5.3227209,20.5567811)" fill="rgb(255,255,255)" stroke="rgb(0,0,0)" stroke-width="0.0010cm" stroke-linecap="round" stroke-linejoin="round" shaper:cutDepth="0.5cm" /><path d="M0.8880126,9.4677139 L2.3469928,10.5043581 5.1247864,17.0249099 9.1676601,14.6907557 9.1676601,9.6907557 4.8375333,7.1907558 0.8880126,9.4677139z" transform="matrix(1,0,0,-1,5.3227209,20.5567811)" fill="rgb(255,255,255)" stroke="rgb(0,0,0)" stroke-width="0.0010cm" stroke-linecap="round" stroke-linejoin="round" shaper:cutDepth="0.5cm" /><path d="M14.4977871,-16.2733459 L14.6762655,-16.3763904 14.6762655,-17.4640874 14.6762655,-17.4640874 14.677148,-17.5969297 14.6798108,-17.7285298 14.6842774,-17.8588855 14.6905708,-17.9879946 14.6987143,-18.1158547 14.7087312,-18.2424636 14.7206446,-18.367819 14.7344778,-18.4919187 14.7502541,-18.6147604 14.7679966,-18.7363418 14.7877286,-18.8566606 14.8094734,-18.9757145 14.8211078,-19.0347665 14.8332541,-19.0935014 14.8459152,-19.151919 14.859094,-19.2100189 14.8727934,-19.267801 14.8870163,-19.3252648 14.9017656,-19.3824102 14.9170442,-19.4392368 14.932855,-19.4957444 14.949201,-19.5519326 14.966085,-19.6078012 14.9835099,-19.6633499 15.0014787,-19.7185785 15.0199997,-19.7734864 15.0390919,-19.8280703 15.0587567,-19.8823241 15.0789946,-19.936242 15.0998057,-19.9898179 15.1211903,-20.0430459 15.1431487,-20.09592 15.1656811,-20.1484342 15.1887878,-20.2005825 15.212469,-20.252359 15.236725,-20.3037577 15.261556,-20.3547726 15.2869624,-20.4053977 15.3129444,-20.4556271 15.3395021,-20.5054548 15.366636,-20.5548748 15.3943462,-20.6038811 15.422633,-20.6524678 15.4514967,-20.7006288 15.4809376,-20.7483582 15.5109558,-20.79565 15.5415516,-20.8424983 15.5727254,-20.8888971 15.6044773,-20.9348403 15.6368076,-20.9803221 15.6697166,-21.0253364 15.7032046,-21.0698772 15.7372717,-21.1139387 15.7719183,-21.1575147 15.8071446,-21.2005994 15.8429509,-21.2431867 15.8793375,-21.2852707 15.9163045,-21.3268454 15.9538523,-21.3679048 15.9919721,-21.4084306 16.0306462,-21.4484 16.069868,-21.4878107 16.1096308,-21.5266607 16.1499282,-21.5649482 16.1907536,-21.6026712 16.2321006,-21.6398276 16.2739624,-21.6764155 16.3163327,-21.712433 16.3592048,-21.747878 16.4025724,-21.7827487 16.4464287,-21.817043 16.4907673,-21.8507591 16.5355816,-21.8838948 16.5808652,-21.9164483 16.6266114,-21.9484177 16.6728137,-21.9798008 16.7194657,-22.0105958 16.7665607,-22.0408007 16.8140923,-22.0704136 16.8620539,-22.0994324 16.9104389,-22.1278553 16.9592409,-22.1556802 17.0084532,-22.1829051 17.0580695,-22.2095282 17.108083,-22.2355475 17.1584873,-22.2609609 17.2092759,-22.2857665 17.2604423,-22.3099624 17.3119798,-22.3335466 17.3638819,-22.3565172 17.4161422,-22.3788721 17.4687532,-22.4006108 17.5216988,-22.4217505 17.5749741,-22.4422993 17.6285778,-22.4622604 17.6825088,-22.4816368 17.7367656,-22.5004318 17.7913472,-22.5186484 17.8462522,-22.5362897 17.9014794,-22.553359 17.9570275,-22.5698593 18.0128954,-22.5857938 18.0690817,-22.6011656 18.1255852,-22.6159778 18.1824046,-22.6302337 18.2395387,-22.6439363 18.2969863,-22.6570887 18.3547461,-22.6696941 18.4128169,-22.6817557 18.4711974,-22.6932765 18.5298863,-22.7042598 18.5888824,-22.7147085 18.6481845,-22.724626 18.7077914,-22.7340153 18.7677017,-22.7428795 18.8279142,-22.7512218 18.8279142,-23.7733459 14.4977871,-26.2733459 10.1676601,-23.7733459 10.1676601,-18.7733459 14.4977871,-16.2733459z" transform="matrix(1,0,0,-1,5.3227209,20.5567811)" fill="rgb(255,255,255)" stroke="rgb(0,0,0)" stroke-width="0.0010cm" stroke-linecap="round" stroke-linejoin="round" shaper:cutDepth="0.5cm" /><path d="M26.342366,-26.1669259 L26.342366,-30.8671716 26.342366,-30.8671716 26.1288341,-30.9540839 25.9161572,-31.038951 25.7043353,-31.1217835 25.4933681,-31.2025918 25.2832553,-31.2813866 25.0739967,-31.3581784 24.8655921,-31.4329778 24.6580412,-31.5057953 24.6580412,-27.1393713 26.342366,-26.1669259z" transform="matrix(1,0,0,-1,5.3227209,20.5567811)" fill="rgb(255,255,255)" stroke="rgb(0,0,0)" stroke-width="0.0010cm" stroke-linecap="round" stroke-linejoin="round" shaper:cutDepth="0.5cm" /></svg>