<?xml version="1.0" encoding="UTF-8" standalone="no"?>
<svg
   id="a"
   width="420mm"
   height="594mm"
   viewBox="0 0 1191.5909 1683.7349"
   version="1.1"
   sodipodi:docname="T-shape.svg"
   inkscape:version="1.3.2 (091e20e, 2023-11-25)"
   xmlns:inkscape="http://www.inkscape.org/namespaces/inkscape"
   xmlns:sodipodi="http://sodipodi.sourceforge.net/DTD/sodipodi-0.dtd"
   xmlns="http://www.w3.org/2000/svg"
   xmlns:svg="http://www.w3.org/2000/svg">
  <sodipodi:namedview
     id="namedview1"
     pagecolor="#ffffff"
     bordercolor="#000000"
     borderopacity="0.25"
     inkscape:showpageshadow="2"
     inkscape:pageopacity="0.0"
     inkscape:pagecheckerboard="0"
     inkscape:deskcolor="#d1d1d1"
     inkscape:document-units="mm"
     inkscape:zoom="0.56317749"
     inkscape:cx="520.26227"
     inkscape:cy="1022.7681"
     inkscape:window-width="1792"
     inkscape:window-height="1067"
     inkscape:window-x="0"
     inkscape:window-y="25"
     inkscape:window-maximized="0"
     inkscape:current-layer="layer1" />
  <defs
     id="defs1">
    <style
       id="style1">.b{fill:#29abe2;stroke-width:0px;}</style>
  </defs>
  <path
     class="b"
     d="m 829.98002,1259.5211 c 58.88991,0 128.57632,-14.7198 211.02218,-43.1779 v 316.9646 c -58.8899,25.5142 -114.83531,43.1779 -167.83625,53.9723 -53.00091,10.7944 -114.83533,15.701 -186.48475,15.701 -146.24331,0 -252.24518,-35.3273 -316.0426,-107.9446 -64.77891,-71.6359 -97.16836,-181.5431 -97.16836,-330.7029 V 644.23695 H 120.35644 V 467.60036 L 313.71168,330.21634 426.58403,65.261456 H 712.20019 V 318.44057 H 1022.3538 V 645.21826 H 712.20019 v 491.63844 c 0,81.4491 39.25993,122.6644 117.77983,122.6644 z"
     id="path1"
     sodipodi:insensitive="true" />
  <g
     inkscape:groupmode="layer"
     id="layer1"
     inkscape:label="hex grid">
    <path
       sodipodi:type="star"
       style="fill:none;stroke:#000000;stroke-width:0.751833"
       id="path3"
       inkscape:flatsided="true"
       sodipodi:sides="6"
       sodipodi:cx="136.94653"
       sodipodi:cy="912.97693"
       sodipodi:r1="285.94632"
       sodipodi:r2="247.63676"
       sodipodi:arg1="1.5707963"
       sodipodi:arg2="2.0943951"
       inkscape:rounded="0"
       inkscape:randomized="0"
       d="m 136.94654,1198.9232 -247.63678,-142.9731 -1e-5,-285.94632 247.63678,-142.97317 247.63678,142.97315 0,285.94634 z"
       transform="matrix(0.49532686,0,0,0.49534149,328.74313,366.4552)"
       inkscape:transform-center-x="1.6107338e-06"
       inkscape:transform-center-y="4.7404615e-06" />
    <path
       sodipodi:type="star"
       style="fill:none;stroke:#000000;stroke-width:0.751833"
       id="path3-6"
       inkscape:flatsided="true"
       sodipodi:sides="6"
       sodipodi:cx="136.94653"
       sodipodi:cy="912.97693"
       sodipodi:r1="285.94632"
       sodipodi:r2="247.63676"
       sodipodi:arg1="1.5707963"
       sodipodi:arg2="2.0943951"
       inkscape:rounded="0"
       inkscape:randomized="0"
       d="m 136.94654,1198.9232 -247.63678,-142.9731 -1e-5,-285.94632 247.63678,-142.97317 247.63678,142.97315 0,285.94634 z"
       transform="matrix(0.49532686,0,0,0.49534149,467.3742,119.40713)"
       inkscape:transform-center-x="1.6107338e-06"
       inkscape:transform-center-y="4.7404615e-06" />
  </g>
</svg>
